<svg width="75" height="75" viewBox="0 0 75 75" fill="none" xmlns="http://www.w3.org/2000/svg">
<circle cx="37.5" cy="37.5" r="37.5" fill="#E0E7FF"/>
<path d="M52.5833 24.5002H48.4167C48.4167 18.7502 43.75 14.0835 38 14.0835C32.25 14.0835 27.5833 18.7502 27.5833 24.5002H23.4167C21.125 24.5002 19.25 26.3752 19.25 28.6668V53.6668C19.25 55.9585 21.125 57.8335 23.4167 57.8335H52.5833C54.875 57.8335 56.75 55.9585 56.75 53.6668V28.6668C56.75 26.3752 54.875 24.5002 52.5833 24.5002ZM38 18.2502C41.4583 18.2502 44.25 21.0418 44.25 24.5002H31.75C31.75 21.0418 34.5417 18.2502 38 18.2502ZM38 39.0835C35.6902 39.0865 33.4452 38.3202 31.6193 36.9055C29.7934 35.4908 28.4906 33.5084 27.9167 31.271C27.5625 29.9585 28.5833 28.6668 29.9375 28.6668C30.9167 28.6668 31.7083 29.3752 31.9792 30.3335C32.3414 31.6525 33.1267 32.816 34.2145 33.6453C35.3022 34.4746 36.6322 34.9238 38 34.9238C39.3678 34.9238 40.6978 34.4746 41.7855 33.6453C42.8733 32.816 43.6586 31.6525 44.0208 30.3335C44.2917 29.3752 45.0833 28.6668 46.0625 28.6668C47.4167 28.6668 48.4167 29.9585 48.0833 31.271C47.5094 33.5084 46.2066 35.4908 44.3807 36.9055C42.5548 38.3202 40.3098 39.0865 38 39.0835V39.0835Z" fill="#4F46E5"/>
</svg>
